#!OML:ASF H:\Terrain\Patient Classification 1\Walking\liu\liu.ASF
:FULLY-SPECIFIED
:DEGREES
372
root 18.658480 34.135799 32.175598 12.430960 8.150200 -5.686940
lowerback -11.507820 0.454120 -0.205362
upperback -1.434020 0.474344 5.511160
thorax 4.951900 0.213950 5.836060
lowerneck -39.700199 -12.465400 -25.065399
upperneck 42.704201 -16.094400 24.958799
head 22.533600 -6.466600 10.821140
rclavicle 0.000000 -0.000000
rhumerus -66.951599 36.363400 -168.026199
rradius 88.671997
rwrist -45.909199
rhand -62.543400 -46.995399
rfingers 14.250040
rthumb -9.091000 -106.857803
lclavicle 0.000000 -0.000000
lhumerus -93.322601 -36.454800 195.909195
lradius 56.875999
lwrist 25.576799
lhand -30.332001 -45.566799
lfingers 14.250040
lthumb 22.009399 13.816360
rfemur -26.624399 11.761840 57.722401
rtibia 58.762199
rfoot -38.171600 6.116500
rtoes -30.916599
lfemur -69.841400 11.040540 -36.224800
ltibia 112.985199
lfoot -30.194599 24.048800
ltoes -5.891240
373
root 18.671061 34.142200 32.422401 12.409160 7.444080 -6.248880
lowerback -11.533700 0.848358 0.360828
upperback -1.359122 0.960390 5.576700
thorax 5.022700 0.460722 5.623220
lowerneck -39.972198 -12.492740 -24.911800
upperneck 42.980000 -16.202801 25.048000
head 22.703199 -6.481780 10.818600
rclavicle -0.000000 0.000000
rhumerus -65.890800 36.637798 -167.942596
rradius 88.742599
rwrist -46.504200
rhand -62.581600 -47.578999
rfingers 14.250040
rthumb -9.127820 -107.440804
lclavicle -0.000000 0.000000
lhumerus -93.735802 -35.575600 195.197998
lradius 56.512001
lwrist 24.388399
lhand -29.254000 -44.740200
lfingers 14.250040
lthumb 23.049000 14.586120
rfemur -25.090599 12.333100 58.365601
rtibia 57.501999
rfoot -38.478401 6.316440
rtoes -28.303600
lfemur -71.430199 10.994600 -35.776199
ltibia 110.321602
lfoot -29.856001 23.630800
ltoes -6.480900
374
root 18.680321 34.157398 32.670601 12.317600 6.522440 -6.452060
lowerback -11.216180 1.365382 0.519746
upperback -1.479984 1.648420 5.600700
thorax 4.689620 0.808396 5.604540
lowerneck -40.075600 -12.497600 -24.840200
upperneck 43.597198 -16.202259 24.756399
head 22.936001 -6.503260 10.715180
rclavicle 0.000000 0.000000
rhumerus -65.425003 36.067001 -167.670395
rradius 89.018997
rwrist -46.344398
rhand -62.252998 -48.195400
rfingers 14.250040
rthumb -8.810480 -108.063797
lclavicle 0.000000 0.000000
lhumerus -94.511398 -34.760201 194.903000
lradius 56.110199
lwrist 24.437000
lhand -28.238800 -44.699200
lfingers 14.250040
lthumb 24.028000 14.571060
rfemur -23.306999 12.849680 58.695400
rtibia 55.936798
rfoot -39.024799 6.239780
rtoes -31.488001
lfemur -72.732002 11.086440 -35.888802
ltibia 107.490196
lfoot -29.380600 24.072201
ltoes -11.327100
375
root 18.693880 34.187599 32.924801 12.123540 5.670640 -6.160800
lowerback -11.373600 1.622566 0.072360
upperback -1.297644 2.011060 5.616820
thorax 4.940700 0.982246 5.906420
lowerneck -39.949001 -12.388900 -24.936001
upperneck 43.861000 -16.019541 24.626600
head 22.980600 -6.447620 10.723860
rclavicle -0.000000 -0.000000
rhumerus -64.726196 35.944401 -167.405807
rradius 89.403801
rwrist -45.900600
rhand -62.411400 -48.673599
rfingers 14.250040
rthumb -8.963600 -108.538803
lclavicle -0.000000 -0.000000
lhumerus -94.847801 -33.160000 194.053604
lradius 55.589802
lwrist 23.195801
lhand -27.491199 -44.883999
lfingers 14.250040
lthumb 24.748800 14.343600
rfemur -21.224800 12.545880 58.462601
rtibia 54.243198
rfoot -39.128399 6.640880
rtoes -33.636600
lfemur -73.733803 10.813740 -36.407600
ltibia 104.454597
lfoot -29.768400 23.665800
ltoes -13.278400
